<?xml version="1.0" encoding="UTF-8" standalone="no"?>
<svg
   xmlns:dc="http://purl.org/dc/elements/1.1/"
   xmlns:cc="http://creativecommons.org/ns#"
   xmlns:rdf="http://www.w3.org/1999/02/22-rdf-syntax-ns#"
   xmlns:svg="http://www.w3.org/2000/svg"
   xmlns="http://www.w3.org/2000/svg"
   version="1.1"
   id="svg2"
   width="538.7038"
   height="682.32086"
   viewBox="0 0 538.7038 682.32086">
  <metadata
     id="metadata8">
    <rdf:RDF>
      <cc:Work
         rdf:about="">
        <dc:format>image/svg+xml</dc:format>
        <dc:type
           rdf:resource="http://purl.org/dc/dcmitype/StillImage" />
        <dc:title></dc:title>
      </cc:Work>
    </rdf:RDF>
  </metadata>
  <defs
     id="defs6" />
  <g
     id="g10"
     transform="translate(857.64115,13.338595)">
    <path
       style="fill:#000000;stroke-width:1.33333"
       d="m -828.49604,667.61323 c -12.96997,-3.72423 -23.10946,-13.72002 -26.91452,-26.53307 -2.98741,-10.05968 -2.96762,-589.212902 0.0206,-601.886844 5.90063,-25.026667 25.28555,-44.4115869 50.31222,-50.312219 12.55268,-2.95959 421.47472,-2.95959 434.0274,0 25.14868,5.9294001 44.50404,25.374532 50.35052,50.584058 1.74162,7.5097 1.94906,45.830572 1.64748,304.333365 l -0.34503,295.74184 -2.86556,6.19889 c -3.68216,7.96542 -11.48695,15.73299 -19.85736,19.76267 -9.22984,4.44343 -23.88077,4.57505 -33.27708,0.29896 -5.49101,-2.49887 -24.06638,-20.52793 -105.33335,-102.23559 -87.46349,-87.93779 -99.19184,-99.26494 -103.29192,-99.75858 -11.20566,-1.34913 -7.96766,-4.2488 -112.04141,100.33438 -77.8412,78.22223 -99.3067,99.0806 -104.35239,101.40098 -7.89885,3.63246 -19.62898,4.49768 -28.07957,2.07116 z m 17.84345,-27.08166 c 1.87632,-1.2785 47.17632,-46.228 100.66667,-99.88777 93.70167,-93.9985 97.54339,-97.66681 105.14359,-100.39761 10.53459,-3.78513 23.02229,-3.7912 33.48202,-0.0163 7.68783,2.77456 11.32513,6.24364 105.29542,100.42545 53.5329,53.6534 98.8329,98.59767 100.66668,99.87618 1.83378,1.27851 4.74157,2.32851 6.46176,2.33333 4.46874,0.012 10.5221,-3.924 12.16648,-7.91197 0.97636,-2.36789 1.29978,-93.41431 1.05652,-297.41258 l -0.35062,-293.999959 -2.86556,-6.198889 c -3.66285,-7.92364 -12.34524,-16.606038 -20.26888,-20.268891 l -6.19889,-2.865555 h -212.66669 -212.66666 l -6.19889,2.865555 c -7.92364,3.662853 -16.60604,12.345251 -20.26889,20.268891 l -2.86556,6.198889 -0.3506,294.000009 c -0.24149,202.4997 0.0838,295.0536 1.0452,297.38528 2.92692,7.09868 12.37372,9.9281 18.7169,5.60594 z M -593.5087,376.22868 c -2.62787,-0.47466 -6.82787,-2.14464 -9.33333,-3.71105 -6.5476,-4.09356 -141.35333,-139.72635 -146.49522,-147.39402 -6.06196,-9.03968 -11.35854,-21.29148 -14.08566,-32.58233 -3.37961,-13.99228 -2.2053,-38.61335 2.47988,-51.9945 11.41335,-32.59712 34.78343,-55.142063 66.21228,-63.874472 12.00657,-3.335985 42.38707,-3.316405 54.66667,0.03523 13.02862,3.556079 31.47987,12.837229 42.38143,21.318259 l 9.71478,7.557763 8.28523,-6.774543 c 9.43302,-7.71305 31.09377,-18.75989 42.95189,-21.90518 12.82077,-3.40063 35.44676,-4.122368 48.20304,-1.537614 36.02682,7.299964 61.4672,30.296547 73.9438,66.840777 2.78416,8.15486 3.18651,11.77447 3.18651,28.66667 0,16.70434 -0.42336,20.60251 -3.11336,28.66667 -5.5292,16.5756 -17.83543,35.96217 -26.38341,41.56301 -5.76388,3.77666 -12.21046,3.00948 -16.67218,-1.98405 -6.16917,-6.90448 -5.24529,-11.36352 4.95608,-23.92031 10.85254,-13.35829 15.41234,-26.73777 15.3335,-44.99198 -0.0837,-19.39851 -6.82008,-35.47877 -20.71811,-49.45637 -15.55877,-15.64784 -31.42957,-21.480863 -54.94451,-20.19381 -23.32365,1.27657 -41.36283,9.75346 -59.22084,27.82879 -9.74864,9.86728 -10.70179,10.48806 -16.10356,10.48806 -5.26058,0 -6.35847,-0.648 -13.10428,-7.73446 -19.70715,-20.70226 -36.89506,-29.1491 -62.16161,-30.54874 -15.9841,-0.885433 -23.92373,0.64601 -37.5126,7.23565 -17.01995,8.25346 -32.12243,27.60797 -36.43901,46.69824 -1.86924,8.26673 -1.83416,24.58625 0.0709,33.01523 0.82865,3.66625 3.38387,10.56625 5.67825,15.33333 3.74996,7.79129 11.21724,15.74309 73.87322,78.6665 l 69.70156,69.99908 24.46185,-24.33242 c 23.65489,-23.52972 24.64016,-24.33241 29.86681,-24.33241 10.27592,0 16.54577,9.50524 11.98619,18.17136 -2.71708,5.16419 -48.52047,50.33487 -53.55494,52.81515 -5.17012,2.54711 -12.10301,3.45376 -18.11128,2.36849 z m 96.58728,-90.67711 c -4.13786,-1.66984 -7.14266,-6.60398 -7.14266,-11.72889 0,-6.22012 2.11444,-9.521 7.555,-11.79421 8.78397,-3.67019 17.77833,2.17448 17.77833,11.55262 0,5.53935 -1.95157,8.85432 -6.63997,11.27879 -4.32345,2.23575 -7.28506,2.41309 -11.5507,0.69169 z"
       id="path14" />
  </g>
</svg>
